# xmcd
#
# Track frame offsets:
#	150
#	16892
#	34026
#	51103
#	68714
#	83325
#	96295
#	110414
#	126561
#	140594
#	157310
#
# Disc length: 2341 seconds
#
# Revision: 1
# Processed by: cddbd v1.5.1PL2 Copyright (c) Steve Scherf et al.
# Submitted via: audiograbber 1.83.01
#
DISCID=9209230b
DTITLE=Suncene skale 05 - Pjesma ljeta CD2  - Suncene skale 2005 
DYEAR=2005
DGENRE=Pop
TTITLE0=STEVAN FADY - Molicu andjele
TTITLE1=ELEMENTARNA NEPOGODA - Najveca je moja tuga sto mi dragu ljubi druga
TTITLE2=MARIJA BOZOVIC - Uzalud
TTITLE3=MOBY DICK - Zena
TTITLE4=FEMINNEM - Kaznit cu te ja
TTITLE5=MINEA - Samo me uzmi
TTITLE6=PERO STEFANOVIC - Moja jedina
TTITLE7=DANIJELA - Jedno te molim
TTITLE8=REBEKA - Daj mi daj
TTITLE9=MAJA NIKOLIC - Stoti put
TTITLE10=E.T. - Bit cu fer
EXTD=
EXTT0=
EXTT1=
EXTT2=
EXTT3=
EXTT4=
EXTT5=
EXTT6=
EXTT7=
EXTT8=
EXTT9=
EXTT10=
PLAYORDER=
